<?xml version="1.0" encoding="UTF-8"?>
<!DOCTYPE svg PUBLIC "-//W3C//DTD SVG 1.1//EN" "http://www.w3.org/Graphics/SVG/1.1/DTD/svg11.dtd">
<svg xmlns="http://www.w3.org/2000/svg" version="1.1" width="256px" height="256px" style="shape-rendering:geometricPrecision; text-rendering:geometricPrecision; image-rendering:optimizeQuality; fill-rule:evenodd; clip-rule:evenodd" xmlns:xlink="http://www.w3.org/1999/xlink">
<g><path style="opacity:0.925" fill="#000000" d="M 17.5,12.5 C 30.5043,12.3334 43.5043,12.5001 56.5,13C 58.8147,14.1094 60.3147,15.9427 61,18.5C 61.4983,21.8168 61.665,25.1501 61.5,28.5C 105.5,28.5 149.5,28.5 193.5,28.5C 193.335,25.1501 193.502,21.8168 194,18.5C 194.685,15.9427 196.185,14.1094 198.5,13C 212.261,12.0367 225.928,12.37 239.5,14C 240.701,14.9025 241.535,16.0692 242,17.5C 242.667,30.5 242.667,43.5 242,56.5C 240.891,58.8147 239.057,60.3147 236.5,61C 233.183,61.4983 229.85,61.665 226.5,61.5C 226.5,105.5 226.5,149.5 226.5,193.5C 229.85,193.335 233.183,193.502 236.5,194C 239.057,194.685 240.891,196.185 242,198.5C 242.963,212.261 242.63,225.928 241,239.5C 240.097,240.701 238.931,241.535 237.5,242C 224.5,242.667 211.5,242.667 198.5,242C 195.898,241.065 194.398,239.232 194,236.5C 193.502,233.183 193.335,229.85 193.5,226.5C 149.5,226.5 105.5,226.5 61.5,226.5C 61.665,229.85 61.4983,233.183 61,236.5C 60.3147,239.057 58.8147,240.891 56.5,242C 42.7389,242.963 29.0722,242.63 15.5,241C 14.2986,240.097 13.4652,238.931 13,237.5C 12.3333,224.5 12.3333,211.5 13,198.5C 14.1094,196.185 15.9427,194.685 18.5,194C 21.8168,193.502 25.1501,193.335 28.5,193.5C 28.5,149.5 28.5,105.5 28.5,61.5C 25.1501,61.665 21.8168,61.4983 18.5,61C 15.9427,60.3147 14.1094,58.8147 13,56.5C 12.3333,43.5 12.3333,30.5 13,17.5C 14.025,15.313 15.525,13.6464 17.5,12.5 Z M 29.5,29.5 C 34.5,29.5 39.5,29.5 44.5,29.5C 44.5,34.5 44.5,39.5 44.5,44.5C 39.5,44.5 34.5,44.5 29.5,44.5C 29.5,39.5 29.5,34.5 29.5,29.5 Z M 210.5,29.5 C 215.5,29.5 220.5,29.5 225.5,29.5C 225.5,34.5 225.5,39.5 225.5,44.5C 220.5,44.5 215.5,44.5 210.5,44.5C 210.5,39.5 210.5,34.5 210.5,29.5 Z M 61.5,45.5 C 81.1695,45.3334 100.836,45.5 120.5,46C 98.9569,51.0446 86.6236,64.5446 83.5,86.5C 67.6837,90.4801 56.1837,99.8134 49,114.5C 47.3783,119.032 46.3783,123.699 46,128.5C 45.5,106.169 45.3334,83.8358 45.5,61.5C 57.8333,63.1667 63.1667,57.8333 61.5,45.5 Z M 133.5,46.5 C 153.326,45.5029 173.326,45.1695 193.5,45.5C 191.833,57.8333 197.167,63.1667 209.5,61.5C 209.5,105.5 209.5,149.5 209.5,193.5C 197.167,191.833 191.833,197.167 193.5,209.5C 173.5,209.5 153.5,209.5 133.5,209.5C 133.5,201.5 133.5,193.5 133.5,185.5C 145.505,185.667 157.505,185.5 169.5,185C 194.527,178.124 207.527,161.624 208.5,135.5C 207.564,109.92 194.897,93.5862 170.5,86.5C 169.55,75.1344 165.05,65.4678 157,57.5C 150.287,51.4294 142.453,47.7628 133.5,46.5 Z M 118.5,59.5 C 136.091,56.9059 148.591,63.5726 156,79.5C 157.228,85.2083 158.561,90.875 160,96.5C 189.327,103.137 200.327,121.137 193,150.5C 188.577,160.641 181.077,167.474 170.5,171C 158.202,172.284 145.869,172.784 133.5,172.5C 133.17,165.468 133.503,158.468 134.5,151.5C 142.915,146.431 151.581,141.765 160.5,137.5C 164.011,134.107 164.344,130.441 161.5,126.5C 158.554,125.345 155.554,125.179 152.5,126C 146.627,129.436 140.627,132.603 134.5,135.5C 133.669,127.855 133.169,120.188 133,112.5C 129,107.167 125,107.167 121,112.5C 120.5,132.497 120.333,152.497 120.5,172.5C 108.131,172.784 95.7979,172.284 83.5,171C 63.907,162.616 55.7403,147.782 59,126.5C 62.5816,113.799 70.4149,104.966 82.5,100C 90.4641,98.9432 98.4641,98.2765 106.5,98C 110.292,95.9473 111.458,92.7806 110,88.5C 109.308,87.9747 108.808,87.3081 108.5,86.5C 104.555,85.5091 100.555,85.1758 96.5,85.5C 99.6258,73.2344 106.959,64.5677 118.5,59.5 Z M 45.5,142.5 C 49.4635,164.908 62.4635,179.074 84.5,185C 96.4954,185.5 108.495,185.667 120.5,185.5C 120.5,193.5 120.5,201.5 120.5,209.5C 100.833,209.5 81.1667,209.5 61.5,209.5C 63.1667,197.167 57.8333,191.833 45.5,193.5C 45.5,176.5 45.5,159.5 45.5,142.5 Z M 29.5,210.5 C 34.5,210.5 39.5,210.5 44.5,210.5C 44.5,215.5 44.5,220.5 44.5,225.5C 39.5,225.5 34.5,225.5 29.5,225.5C 29.5,220.5 29.5,215.5 29.5,210.5 Z M 210.5,210.5 C 215.5,210.5 220.5,210.5 225.5,210.5C 225.5,215.5 225.5,220.5 225.5,225.5C 220.5,225.5 215.5,225.5 210.5,225.5C 210.5,220.5 210.5,215.5 210.5,210.5 Z"/></g>
</svg>
